<mxfile host="app.diagrams.net" modified="2023-11-28T10:10:50.432Z" agent="Mozilla/5.0 (Windows NT 10.0; Win64; x64) AppleWebKit/537.36 (KHTML, like Gecko) Chrome/119.0.0.0 Safari/537.36" etag="TAxWAtY4wEbd8LYyHe_H" version="22.1.4" type="device">
  <diagram name="Page-1" id="rmu1YdN54JEDTl_w8TKy">
    <mxGraphModel dx="2889" dy="1851" grid="0" gridSize="10" guides="1" tooltips="1" connect="1" arrows="1" fold="1" page="0" pageScale="1" pageWidth="850" pageHeight="1100" math="0" shadow="0">
      <root>
        <mxCell id="0" />
        <mxCell id="1" parent="0" />
        <mxCell id="hb9DhzdC0Ohu6EWz64yd-23" value="Customer" style="swimlane;fontStyle=1;align=center;verticalAlign=top;childLayout=stackLayout;horizontal=1;startSize=26;horizontalStack=0;resizeParent=1;resizeParentMax=0;resizeLast=0;collapsible=1;marginBottom=0;whiteSpace=wrap;html=1;fontSize=16;" parent="1" vertex="1">
          <mxGeometry x="-171" y="-24" width="214" height="185" as="geometry" />
        </mxCell>
        <mxCell id="hb9DhzdC0Ohu6EWz64yd-24" value="- Cust_id : int&lt;br&gt;- Cust_name : String&lt;br&gt;- Cust_address : String&lt;br&gt;- Cust_phone : Number" style="text;strokeColor=none;fillColor=none;align=left;verticalAlign=top;spacingLeft=4;spacingRight=4;overflow=hidden;rotatable=0;points=[[0,0.5],[1,0.5]];portConstraint=eastwest;whiteSpace=wrap;html=1;fontSize=16;" parent="hb9DhzdC0Ohu6EWz64yd-23" vertex="1">
          <mxGeometry y="26" width="214" height="87" as="geometry" />
        </mxCell>
        <mxCell id="hb9DhzdC0Ohu6EWz64yd-25" value="" style="line;strokeWidth=1;fillColor=none;align=left;verticalAlign=middle;spacingTop=-1;spacingLeft=3;spacingRight=3;rotatable=0;labelPosition=right;points=[];portConstraint=eastwest;strokeColor=inherit;fontSize=16;" parent="hb9DhzdC0Ohu6EWz64yd-23" vertex="1">
          <mxGeometry y="113" width="214" height="8" as="geometry" />
        </mxCell>
        <mxCell id="hb9DhzdC0Ohu6EWz64yd-26" value="+ registerCust() : void&lt;br&gt;+ login() : void&lt;br&gt;+ updateProfile() : void" style="text;strokeColor=none;fillColor=none;align=left;verticalAlign=top;spacingLeft=4;spacingRight=4;overflow=hidden;rotatable=0;points=[[0,0.5],[1,0.5]];portConstraint=eastwest;whiteSpace=wrap;html=1;fontSize=16;" parent="hb9DhzdC0Ohu6EWz64yd-23" vertex="1">
          <mxGeometry y="121" width="214" height="64" as="geometry" />
        </mxCell>
        <mxCell id="hb9DhzdC0Ohu6EWz64yd-27" value="Product" style="swimlane;fontStyle=1;align=center;verticalAlign=top;childLayout=stackLayout;horizontal=1;startSize=26;horizontalStack=0;resizeParent=1;resizeParentMax=0;resizeLast=0;collapsible=1;marginBottom=0;whiteSpace=wrap;html=1;fontSize=16;" parent="1" vertex="1">
          <mxGeometry x="186" y="9" width="205" height="192" as="geometry" />
        </mxCell>
        <mxCell id="hb9DhzdC0Ohu6EWz64yd-28" value="- product_id : int&lt;br&gt;- product_name : String&lt;br&gt;- product_price : Float&lt;br&gt;- description : String&lt;br&gt;- status : String" style="text;strokeColor=none;fillColor=none;align=left;verticalAlign=top;spacingLeft=4;spacingRight=4;overflow=hidden;rotatable=0;points=[[0,0.5],[1,0.5]];portConstraint=eastwest;whiteSpace=wrap;html=1;fontSize=16;" parent="hb9DhzdC0Ohu6EWz64yd-27" vertex="1">
          <mxGeometry y="26" width="205" height="106" as="geometry" />
        </mxCell>
        <mxCell id="hb9DhzdC0Ohu6EWz64yd-29" value="" style="line;strokeWidth=1;fillColor=none;align=left;verticalAlign=middle;spacingTop=-1;spacingLeft=3;spacingRight=3;rotatable=0;labelPosition=right;points=[];portConstraint=eastwest;strokeColor=inherit;fontSize=16;" parent="hb9DhzdC0Ohu6EWz64yd-27" vertex="1">
          <mxGeometry y="132" width="205" height="8" as="geometry" />
        </mxCell>
        <mxCell id="hb9DhzdC0Ohu6EWz64yd-30" value="+ RegisterProduct() : void&lt;br&gt;+ Update_info() : void&amp;nbsp;" style="text;strokeColor=none;fillColor=none;align=left;verticalAlign=top;spacingLeft=4;spacingRight=4;overflow=hidden;rotatable=0;points=[[0,0.5],[1,0.5]];portConstraint=eastwest;whiteSpace=wrap;html=1;fontSize=16;" parent="hb9DhzdC0Ohu6EWz64yd-27" vertex="1">
          <mxGeometry y="140" width="205" height="52" as="geometry" />
        </mxCell>
        <mxCell id="hb9DhzdC0Ohu6EWz64yd-31" value="ProductDescription" style="swimlane;fontStyle=1;align=center;verticalAlign=top;childLayout=stackLayout;horizontal=1;startSize=26;horizontalStack=0;resizeParent=1;resizeParentMax=0;resizeLast=0;collapsible=1;marginBottom=0;whiteSpace=wrap;html=1;fontSize=16;" parent="1" vertex="1">
          <mxGeometry x="451" y="191" width="222" height="204" as="geometry" />
        </mxCell>
        <mxCell id="hb9DhzdC0Ohu6EWz64yd-32" value="+ productStatus : String&lt;br&gt;+ productName : String&lt;br&gt;+ productPrice : Float&lt;br&gt;+ description : String&lt;br&gt;+ weight : float&lt;br&gt;+ quantity : int" style="text;strokeColor=none;fillColor=none;align=left;verticalAlign=top;spacingLeft=4;spacingRight=4;overflow=hidden;rotatable=0;points=[[0,0.5],[1,0.5]];portConstraint=eastwest;whiteSpace=wrap;html=1;fontSize=16;" parent="hb9DhzdC0Ohu6EWz64yd-31" vertex="1">
          <mxGeometry y="26" width="222" height="133" as="geometry" />
        </mxCell>
        <mxCell id="hb9DhzdC0Ohu6EWz64yd-33" value="" style="line;strokeWidth=1;fillColor=none;align=left;verticalAlign=middle;spacingTop=-1;spacingLeft=3;spacingRight=3;rotatable=0;labelPosition=right;points=[];portConstraint=eastwest;strokeColor=inherit;fontSize=16;" parent="hb9DhzdC0Ohu6EWz64yd-31" vertex="1">
          <mxGeometry y="159" width="222" height="8" as="geometry" />
        </mxCell>
        <mxCell id="hb9DhzdC0Ohu6EWz64yd-34" value="+ ProductDescription() : void" style="text;strokeColor=none;fillColor=none;align=left;verticalAlign=top;spacingLeft=4;spacingRight=4;overflow=hidden;rotatable=0;points=[[0,0.5],[1,0.5]];portConstraint=eastwest;whiteSpace=wrap;html=1;fontSize=16;" parent="hb9DhzdC0Ohu6EWz64yd-31" vertex="1">
          <mxGeometry y="167" width="222" height="37" as="geometry" />
        </mxCell>
        <mxCell id="hb9DhzdC0Ohu6EWz64yd-35" value="RatingAndReview" style="swimlane;fontStyle=1;align=center;verticalAlign=top;childLayout=stackLayout;horizontal=1;startSize=26;horizontalStack=0;resizeParent=1;resizeParentMax=0;resizeLast=0;collapsible=1;marginBottom=0;whiteSpace=wrap;html=1;fontSize=16;" parent="1" vertex="1">
          <mxGeometry x="-83" y="269" width="193" height="159" as="geometry" />
        </mxCell>
        <mxCell id="hb9DhzdC0Ohu6EWz64yd-36" value="- product_id : int&lt;br&gt;- product_review : String&lt;br&gt;- product_rate : int" style="text;strokeColor=none;fillColor=none;align=left;verticalAlign=top;spacingLeft=4;spacingRight=4;overflow=hidden;rotatable=0;points=[[0,0.5],[1,0.5]];portConstraint=eastwest;whiteSpace=wrap;html=1;fontSize=16;" parent="hb9DhzdC0Ohu6EWz64yd-35" vertex="1">
          <mxGeometry y="26" width="193" height="73" as="geometry" />
        </mxCell>
        <mxCell id="hb9DhzdC0Ohu6EWz64yd-37" value="" style="line;strokeWidth=1;fillColor=none;align=left;verticalAlign=middle;spacingTop=-1;spacingLeft=3;spacingRight=3;rotatable=0;labelPosition=right;points=[];portConstraint=eastwest;strokeColor=inherit;fontSize=16;" parent="hb9DhzdC0Ohu6EWz64yd-35" vertex="1">
          <mxGeometry y="99" width="193" height="8" as="geometry" />
        </mxCell>
        <mxCell id="hb9DhzdC0Ohu6EWz64yd-38" value="+ Rating() : void&lt;br&gt;+ Review() : void" style="text;strokeColor=none;fillColor=none;align=left;verticalAlign=top;spacingLeft=4;spacingRight=4;overflow=hidden;rotatable=0;points=[[0,0.5],[1,0.5]];portConstraint=eastwest;whiteSpace=wrap;html=1;fontSize=16;" parent="hb9DhzdC0Ohu6EWz64yd-35" vertex="1">
          <mxGeometry y="107" width="193" height="52" as="geometry" />
        </mxCell>
        <mxCell id="hb9DhzdC0Ohu6EWz64yd-39" value="SimilarProduct" style="swimlane;fontStyle=1;align=center;verticalAlign=top;childLayout=stackLayout;horizontal=1;startSize=26;horizontalStack=0;resizeParent=1;resizeParentMax=0;resizeLast=0;collapsible=1;marginBottom=0;whiteSpace=wrap;html=1;fontSize=16;" parent="1" vertex="1">
          <mxGeometry x="449" y="603" width="226" height="119" as="geometry" />
        </mxCell>
        <mxCell id="hb9DhzdC0Ohu6EWz64yd-40" value="- Product_id : int&lt;br&gt;- Product_type : String" style="text;strokeColor=none;fillColor=none;align=left;verticalAlign=top;spacingLeft=4;spacingRight=4;overflow=hidden;rotatable=0;points=[[0,0.5],[1,0.5]];portConstraint=eastwest;whiteSpace=wrap;html=1;fontSize=16;" parent="hb9DhzdC0Ohu6EWz64yd-39" vertex="1">
          <mxGeometry y="26" width="226" height="50" as="geometry" />
        </mxCell>
        <mxCell id="hb9DhzdC0Ohu6EWz64yd-41" value="" style="line;strokeWidth=1;fillColor=none;align=left;verticalAlign=middle;spacingTop=-1;spacingLeft=3;spacingRight=3;rotatable=0;labelPosition=right;points=[];portConstraint=eastwest;strokeColor=inherit;fontSize=16;" parent="hb9DhzdC0Ohu6EWz64yd-39" vertex="1">
          <mxGeometry y="76" width="226" height="8" as="geometry" />
        </mxCell>
        <mxCell id="hb9DhzdC0Ohu6EWz64yd-42" value="+ SimilarProduct() : String" style="text;strokeColor=none;fillColor=none;align=left;verticalAlign=top;spacingLeft=4;spacingRight=4;overflow=hidden;rotatable=0;points=[[0,0.5],[1,0.5]];portConstraint=eastwest;whiteSpace=wrap;html=1;fontSize=16;" parent="hb9DhzdC0Ohu6EWz64yd-39" vertex="1">
          <mxGeometry y="84" width="226" height="35" as="geometry" />
        </mxCell>
        <mxCell id="hb9DhzdC0Ohu6EWz64yd-43" value="SeasonalProduct" style="swimlane;fontStyle=1;align=center;verticalAlign=top;childLayout=stackLayout;horizontal=1;startSize=26;horizontalStack=0;resizeParent=1;resizeParentMax=0;resizeLast=0;collapsible=1;marginBottom=0;whiteSpace=wrap;html=1;fontSize=16;" parent="1" vertex="1">
          <mxGeometry x="-389" y="276" width="221" height="149" as="geometry" />
        </mxCell>
        <mxCell id="hb9DhzdC0Ohu6EWz64yd-44" value="- product_id : int&lt;br&gt;- product_season: String&lt;br&gt;- Product_type : String" style="text;strokeColor=none;fillColor=none;align=left;verticalAlign=top;spacingLeft=4;spacingRight=4;overflow=hidden;rotatable=0;points=[[0,0.5],[1,0.5]];portConstraint=eastwest;whiteSpace=wrap;html=1;fontSize=16;" parent="hb9DhzdC0Ohu6EWz64yd-43" vertex="1">
          <mxGeometry y="26" width="221" height="75" as="geometry" />
        </mxCell>
        <mxCell id="hb9DhzdC0Ohu6EWz64yd-45" value="" style="line;strokeWidth=1;fillColor=none;align=left;verticalAlign=middle;spacingTop=-1;spacingLeft=3;spacingRight=3;rotatable=0;labelPosition=right;points=[];portConstraint=eastwest;strokeColor=inherit;fontSize=16;" parent="hb9DhzdC0Ohu6EWz64yd-43" vertex="1">
          <mxGeometry y="101" width="221" height="8" as="geometry" />
        </mxCell>
        <mxCell id="hb9DhzdC0Ohu6EWz64yd-46" value="+ SeasonProduct() : season" style="text;strokeColor=none;fillColor=none;align=left;verticalAlign=top;spacingLeft=4;spacingRight=4;overflow=hidden;rotatable=0;points=[[0,0.5],[1,0.5]];portConstraint=eastwest;whiteSpace=wrap;html=1;fontSize=16;" parent="hb9DhzdC0Ohu6EWz64yd-43" vertex="1">
          <mxGeometry y="109" width="221" height="40" as="geometry" />
        </mxCell>
        <mxCell id="hb9DhzdC0Ohu6EWz64yd-47" value="Cart" style="swimlane;fontStyle=1;align=center;verticalAlign=top;childLayout=stackLayout;horizontal=1;startSize=26;horizontalStack=0;resizeParent=1;resizeParentMax=0;resizeLast=0;collapsible=1;marginBottom=0;whiteSpace=wrap;html=1;fontSize=16;" parent="1" vertex="1">
          <mxGeometry x="162" y="446" width="257" height="167" as="geometry" />
        </mxCell>
        <mxCell id="hb9DhzdC0Ohu6EWz64yd-48" value="- product_id : int&lt;br&gt;- product_name : String&lt;br&gt;- product_quantity : int&lt;br&gt;- product_weight : int" style="text;strokeColor=none;fillColor=none;align=left;verticalAlign=top;spacingLeft=4;spacingRight=4;overflow=hidden;rotatable=0;points=[[0,0.5],[1,0.5]];portConstraint=eastwest;whiteSpace=wrap;html=1;fontSize=16;" parent="hb9DhzdC0Ohu6EWz64yd-47" vertex="1">
          <mxGeometry y="26" width="257" height="94" as="geometry" />
        </mxCell>
        <mxCell id="hb9DhzdC0Ohu6EWz64yd-49" value="" style="line;strokeWidth=1;fillColor=none;align=left;verticalAlign=middle;spacingTop=-1;spacingLeft=3;spacingRight=3;rotatable=0;labelPosition=right;points=[];portConstraint=eastwest;strokeColor=inherit;fontSize=16;" parent="hb9DhzdC0Ohu6EWz64yd-47" vertex="1">
          <mxGeometry y="120" width="257" height="8" as="geometry" />
        </mxCell>
        <mxCell id="hb9DhzdC0Ohu6EWz64yd-50" value="- cart() : String" style="text;strokeColor=none;fillColor=none;align=left;verticalAlign=top;spacingLeft=4;spacingRight=4;overflow=hidden;rotatable=0;points=[[0,0.5],[1,0.5]];portConstraint=eastwest;whiteSpace=wrap;html=1;fontSize=16;" parent="hb9DhzdC0Ohu6EWz64yd-47" vertex="1">
          <mxGeometry y="128" width="257" height="39" as="geometry" />
        </mxCell>
        <mxCell id="hb9DhzdC0Ohu6EWz64yd-51" value="" style="endArrow=classic;html=1;rounded=0;fontSize=12;startSize=8;endSize=8;curved=1;entryX=0.16;entryY=1.03;entryDx=0;entryDy=0;entryPerimeter=0;exitX=0.5;exitY=0;exitDx=0;exitDy=0;" parent="1" source="hb9DhzdC0Ohu6EWz64yd-52" target="hb9DhzdC0Ohu6EWz64yd-50" edge="1">
          <mxGeometry width="50" height="50" relative="1" as="geometry">
            <mxPoint x="-93" y="740" as="sourcePoint" />
            <mxPoint x="-43" y="690" as="targetPoint" />
          </mxGeometry>
        </mxCell>
        <mxCell id="hb9DhzdC0Ohu6EWz64yd-52" value="Checkout" style="swimlane;fontStyle=1;align=center;verticalAlign=top;childLayout=stackLayout;horizontal=1;startSize=26;horizontalStack=0;resizeParent=1;resizeParentMax=0;resizeLast=0;collapsible=1;marginBottom=0;whiteSpace=wrap;html=1;fontSize=16;" parent="1" vertex="1">
          <mxGeometry x="125" y="733" width="160" height="86" as="geometry" />
        </mxCell>
        <mxCell id="hb9DhzdC0Ohu6EWz64yd-53" value="+ field: type" style="text;strokeColor=none;fillColor=none;align=left;verticalAlign=top;spacingLeft=4;spacingRight=4;overflow=hidden;rotatable=0;points=[[0,0.5],[1,0.5]];portConstraint=eastwest;whiteSpace=wrap;html=1;fontSize=16;" parent="hb9DhzdC0Ohu6EWz64yd-52" vertex="1">
          <mxGeometry y="26" width="160" height="26" as="geometry" />
        </mxCell>
        <mxCell id="hb9DhzdC0Ohu6EWz64yd-54" value="" style="line;strokeWidth=1;fillColor=none;align=left;verticalAlign=middle;spacingTop=-1;spacingLeft=3;spacingRight=3;rotatable=0;labelPosition=right;points=[];portConstraint=eastwest;strokeColor=inherit;fontSize=16;" parent="hb9DhzdC0Ohu6EWz64yd-52" vertex="1">
          <mxGeometry y="52" width="160" height="8" as="geometry" />
        </mxCell>
        <mxCell id="hb9DhzdC0Ohu6EWz64yd-55" value="+ method(type): type" style="text;strokeColor=none;fillColor=none;align=left;verticalAlign=top;spacingLeft=4;spacingRight=4;overflow=hidden;rotatable=0;points=[[0,0.5],[1,0.5]];portConstraint=eastwest;whiteSpace=wrap;html=1;fontSize=16;" parent="hb9DhzdC0Ohu6EWz64yd-52" vertex="1">
          <mxGeometry y="60" width="160" height="26" as="geometry" />
        </mxCell>
        <mxCell id="hb9DhzdC0Ohu6EWz64yd-56" value="" style="endArrow=classic;html=1;rounded=0;fontSize=12;startSize=8;endSize=8;curved=1;entryX=0.698;entryY=1.115;entryDx=0;entryDy=0;entryPerimeter=0;exitX=0.5;exitY=0;exitDx=0;exitDy=0;" parent="1" source="hb9DhzdC0Ohu6EWz64yd-57" target="hb9DhzdC0Ohu6EWz64yd-50" edge="1">
          <mxGeometry width="50" height="50" relative="1" as="geometry">
            <mxPoint x="135" y="713" as="sourcePoint" />
            <mxPoint x="144" y="660" as="targetPoint" />
          </mxGeometry>
        </mxCell>
        <mxCell id="hb9DhzdC0Ohu6EWz64yd-57" value="Remove" style="swimlane;fontStyle=1;align=center;verticalAlign=top;childLayout=stackLayout;horizontal=1;startSize=26;horizontalStack=0;resizeParent=1;resizeParentMax=0;resizeLast=0;collapsible=1;marginBottom=0;whiteSpace=wrap;html=1;fontSize=16;" parent="1" vertex="1">
          <mxGeometry x="302" y="740" width="160" height="86" as="geometry" />
        </mxCell>
        <mxCell id="hb9DhzdC0Ohu6EWz64yd-58" value="+ field: type" style="text;strokeColor=none;fillColor=none;align=left;verticalAlign=top;spacingLeft=4;spacingRight=4;overflow=hidden;rotatable=0;points=[[0,0.5],[1,0.5]];portConstraint=eastwest;whiteSpace=wrap;html=1;fontSize=16;" parent="hb9DhzdC0Ohu6EWz64yd-57" vertex="1">
          <mxGeometry y="26" width="160" height="26" as="geometry" />
        </mxCell>
        <mxCell id="hb9DhzdC0Ohu6EWz64yd-59" value="" style="line;strokeWidth=1;fillColor=none;align=left;verticalAlign=middle;spacingTop=-1;spacingLeft=3;spacingRight=3;rotatable=0;labelPosition=right;points=[];portConstraint=eastwest;strokeColor=inherit;fontSize=16;" parent="hb9DhzdC0Ohu6EWz64yd-57" vertex="1">
          <mxGeometry y="52" width="160" height="8" as="geometry" />
        </mxCell>
        <mxCell id="hb9DhzdC0Ohu6EWz64yd-60" value="+ method(type): type" style="text;strokeColor=none;fillColor=none;align=left;verticalAlign=top;spacingLeft=4;spacingRight=4;overflow=hidden;rotatable=0;points=[[0,0.5],[1,0.5]];portConstraint=eastwest;whiteSpace=wrap;html=1;fontSize=16;" parent="hb9DhzdC0Ohu6EWz64yd-57" vertex="1">
          <mxGeometry y="60" width="160" height="26" as="geometry" />
        </mxCell>
        <mxCell id="hb9DhzdC0Ohu6EWz64yd-61" value="Order" style="swimlane;fontStyle=1;align=center;verticalAlign=top;childLayout=stackLayout;horizontal=1;startSize=26;horizontalStack=0;resizeParent=1;resizeParentMax=0;resizeLast=0;collapsible=1;marginBottom=0;whiteSpace=wrap;html=1;fontSize=16;" parent="1" vertex="1">
          <mxGeometry x="-255" y="498" width="235" height="187" as="geometry" />
        </mxCell>
        <mxCell id="hb9DhzdC0Ohu6EWz64yd-62" value="+ order_id : int&lt;br&gt;- order_date : date&lt;br&gt;- order_info : String&lt;br&gt;- order_product : String&amp;nbsp;" style="text;strokeColor=none;fillColor=none;align=left;verticalAlign=top;spacingLeft=4;spacingRight=4;overflow=hidden;rotatable=0;points=[[0,0.5],[1,0.5]];portConstraint=eastwest;whiteSpace=wrap;html=1;fontSize=16;" parent="hb9DhzdC0Ohu6EWz64yd-61" vertex="1">
          <mxGeometry y="26" width="235" height="90" as="geometry" />
        </mxCell>
        <mxCell id="hb9DhzdC0Ohu6EWz64yd-63" value="" style="line;strokeWidth=1;fillColor=none;align=left;verticalAlign=middle;spacingTop=-1;spacingLeft=3;spacingRight=3;rotatable=0;labelPosition=right;points=[];portConstraint=eastwest;strokeColor=inherit;fontSize=16;" parent="hb9DhzdC0Ohu6EWz64yd-61" vertex="1">
          <mxGeometry y="116" width="235" height="8" as="geometry" />
        </mxCell>
        <mxCell id="hb9DhzdC0Ohu6EWz64yd-64" value="+ order_product() : String&lt;br&gt;+ orderInfo() : String" style="text;strokeColor=none;fillColor=none;align=left;verticalAlign=top;spacingLeft=4;spacingRight=4;overflow=hidden;rotatable=0;points=[[0,0.5],[1,0.5]];portConstraint=eastwest;whiteSpace=wrap;html=1;fontSize=16;" parent="hb9DhzdC0Ohu6EWz64yd-61" vertex="1">
          <mxGeometry y="124" width="235" height="63" as="geometry" />
        </mxCell>
        <mxCell id="hb9DhzdC0Ohu6EWz64yd-65" value="Fee" style="swimlane;fontStyle=1;align=center;verticalAlign=top;childLayout=stackLayout;horizontal=1;startSize=26;horizontalStack=0;resizeParent=1;resizeParentMax=0;resizeLast=0;collapsible=1;marginBottom=0;whiteSpace=wrap;html=1;fontSize=16;" parent="1" vertex="1">
          <mxGeometry x="-521" y="720" width="206" height="144" as="geometry" />
        </mxCell>
        <mxCell id="hb9DhzdC0Ohu6EWz64yd-66" value="- amount : float&lt;br&gt;- Date : date&lt;br&gt;- CustomerName : String" style="text;strokeColor=none;fillColor=none;align=left;verticalAlign=top;spacingLeft=4;spacingRight=4;overflow=hidden;rotatable=0;points=[[0,0.5],[1,0.5]];portConstraint=eastwest;whiteSpace=wrap;html=1;fontSize=16;" parent="hb9DhzdC0Ohu6EWz64yd-65" vertex="1">
          <mxGeometry y="26" width="206" height="74" as="geometry" />
        </mxCell>
        <mxCell id="hb9DhzdC0Ohu6EWz64yd-67" value="" style="line;strokeWidth=1;fillColor=none;align=left;verticalAlign=middle;spacingTop=-1;spacingLeft=3;spacingRight=3;rotatable=0;labelPosition=right;points=[];portConstraint=eastwest;strokeColor=inherit;fontSize=16;" parent="hb9DhzdC0Ohu6EWz64yd-65" vertex="1">
          <mxGeometry y="100" width="206" height="8" as="geometry" />
        </mxCell>
        <mxCell id="hb9DhzdC0Ohu6EWz64yd-68" value="+ payment() : String" style="text;strokeColor=none;fillColor=none;align=left;verticalAlign=top;spacingLeft=4;spacingRight=4;overflow=hidden;rotatable=0;points=[[0,0.5],[1,0.5]];portConstraint=eastwest;whiteSpace=wrap;html=1;fontSize=16;" parent="hb9DhzdC0Ohu6EWz64yd-65" vertex="1">
          <mxGeometry y="108" width="206" height="36" as="geometry" />
        </mxCell>
        <mxCell id="dj5kbvaBb0ilANof_mrp-1" value="1" style="endArrow=open;html=1;endSize=12;startArrow=diamondThin;startSize=14;startFill=0;align=left;verticalAlign=bottom;rounded=0;fontSize=12;entryX=0;entryY=0.076;entryDx=0;entryDy=0;entryPerimeter=0;" edge="1" parent="1" target="hb9DhzdC0Ohu6EWz64yd-28">
          <mxGeometry x="-1" y="3" relative="1" as="geometry">
            <mxPoint x="46" y="-6" as="sourcePoint" />
            <mxPoint x="230" y="93" as="targetPoint" />
          </mxGeometry>
        </mxCell>
        <mxCell id="dj5kbvaBb0ilANof_mrp-2" value="&lt;b&gt;*&lt;/b&gt;" style="text;html=1;align=center;verticalAlign=middle;resizable=0;points=[];autosize=1;strokeColor=none;fillColor=none;fontSize=16;" vertex="1" parent="1">
          <mxGeometry x="166" y="12" width="24" height="31" as="geometry" />
        </mxCell>
        <mxCell id="dj5kbvaBb0ilANof_mrp-3" value="1" style="endArrow=open;html=1;endSize=12;startArrow=diamondThin;startSize=14;startFill=1;align=left;verticalAlign=bottom;rounded=0;fontSize=12;exitX=1;exitY=0.248;exitDx=0;exitDy=0;exitPerimeter=0;entryX=-0.009;entryY=0.338;entryDx=0;entryDy=0;entryPerimeter=0;" edge="1" parent="1" source="hb9DhzdC0Ohu6EWz64yd-28" target="hb9DhzdC0Ohu6EWz64yd-32">
          <mxGeometry x="-1" y="3" relative="1" as="geometry">
            <mxPoint x="442" y="83" as="sourcePoint" />
            <mxPoint x="602" y="83" as="targetPoint" />
          </mxGeometry>
        </mxCell>
        <mxCell id="dj5kbvaBb0ilANof_mrp-4" value="Navigate" style="text;html=1;align=center;verticalAlign=middle;resizable=0;points=[];autosize=1;strokeColor=none;fillColor=none;fontSize=16;rotation=15;" vertex="1" parent="1">
          <mxGeometry x="74" y="-9" width="81" height="31" as="geometry" />
        </mxCell>
        <mxCell id="dj5kbvaBb0ilANof_mrp-5" value="has" style="text;html=1;align=center;verticalAlign=middle;resizable=0;points=[];autosize=1;strokeColor=none;fillColor=none;fontSize=16;rotation=5;" vertex="1" parent="1">
          <mxGeometry x="407" y="104" width="44" height="31" as="geometry" />
        </mxCell>
        <mxCell id="dj5kbvaBb0ilANof_mrp-6" value="&lt;b&gt;1..*&lt;/b&gt;" style="text;html=1;align=center;verticalAlign=middle;resizable=0;points=[];autosize=1;strokeColor=none;fillColor=none;fontSize=16;" vertex="1" parent="1">
          <mxGeometry x="417" y="251" width="42" height="31" as="geometry" />
        </mxCell>
        <mxCell id="dj5kbvaBb0ilANof_mrp-7" value="1" style="endArrow=open;html=1;endSize=12;startArrow=diamondThin;startSize=14;startFill=1;align=left;verticalAlign=bottom;rounded=0;fontSize=12;exitX=0.5;exitY=1;exitDx=0;exitDy=0;entryX=0.5;entryY=0;entryDx=0;entryDy=0;edgeStyle=elbowEdgeStyle;elbow=vertical;" edge="1" parent="1" source="hb9DhzdC0Ohu6EWz64yd-31" target="hb9DhzdC0Ohu6EWz64yd-39">
          <mxGeometry x="-1" y="3" relative="1" as="geometry">
            <mxPoint x="435" y="233" as="sourcePoint" />
            <mxPoint x="595" y="233" as="targetPoint" />
          </mxGeometry>
        </mxCell>
        <mxCell id="dj5kbvaBb0ilANof_mrp-8" value="Shows" style="text;html=1;align=center;verticalAlign=middle;resizable=0;points=[];autosize=1;strokeColor=none;fillColor=none;fontSize=16;" vertex="1" parent="1">
          <mxGeometry x="494" y="446" width="66" height="31" as="geometry" />
        </mxCell>
        <mxCell id="dj5kbvaBb0ilANof_mrp-9" value="&lt;b&gt;+1..*&lt;/b&gt;" style="text;html=1;align=center;verticalAlign=middle;resizable=0;points=[];autosize=1;strokeColor=none;fillColor=none;fontSize=16;" vertex="1" parent="1">
          <mxGeometry x="513" y="562" width="51" height="31" as="geometry" />
        </mxCell>
        <mxCell id="dj5kbvaBb0ilANof_mrp-10" value="1" style="endArrow=open;html=1;endSize=12;startArrow=diamondThin;startSize=14;startFill=1;edgeStyle=orthogonalEdgeStyle;align=left;verticalAlign=bottom;rounded=0;fontSize=12;exitX=-0.02;exitY=0.868;exitDx=0;exitDy=0;entryX=1.012;entryY=0.174;entryDx=0;entryDy=0;entryPerimeter=0;exitPerimeter=0;" edge="1" parent="1" source="hb9DhzdC0Ohu6EWz64yd-28" target="hb9DhzdC0Ohu6EWz64yd-36">
          <mxGeometry x="-1" y="3" relative="1" as="geometry">
            <mxPoint x="93" y="203" as="sourcePoint" />
            <mxPoint x="253" y="203" as="targetPoint" />
          </mxGeometry>
        </mxCell>
        <mxCell id="dj5kbvaBb0ilANof_mrp-11" value="&lt;b&gt;+1..*&lt;/b&gt;" style="text;html=1;align=center;verticalAlign=middle;resizable=0;points=[];autosize=1;strokeColor=none;fillColor=none;fontSize=16;" vertex="1" parent="1">
          <mxGeometry x="104" y="308" width="51" height="31" as="geometry" />
        </mxCell>
        <mxCell id="dj5kbvaBb0ilANof_mrp-12" value="has" style="text;html=1;align=center;verticalAlign=middle;resizable=0;points=[];autosize=1;strokeColor=none;fillColor=none;fontSize=16;" vertex="1" parent="1">
          <mxGeometry x="146" y="232" width="44" height="31" as="geometry" />
        </mxCell>
        <mxCell id="dj5kbvaBb0ilANof_mrp-13" value="1" style="endArrow=open;html=1;endSize=12;startArrow=diamondThin;startSize=14;startFill=0;edgeStyle=orthogonalEdgeStyle;align=left;verticalAlign=bottom;rounded=0;fontSize=12;entryX=0.5;entryY=0;entryDx=0;entryDy=0;exitX=0;exitY=0.5;exitDx=0;exitDy=0;" edge="1" parent="1" source="hb9DhzdC0Ohu6EWz64yd-26" target="hb9DhzdC0Ohu6EWz64yd-43">
          <mxGeometry x="-1" y="3" relative="1" as="geometry">
            <mxPoint x="-459" y="173" as="sourcePoint" />
            <mxPoint x="-299" y="173" as="targetPoint" />
          </mxGeometry>
        </mxCell>
        <mxCell id="dj5kbvaBb0ilANof_mrp-14" value="find" style="text;html=1;align=center;verticalAlign=middle;resizable=0;points=[];autosize=1;strokeColor=none;fillColor=none;fontSize=16;" vertex="1" parent="1">
          <mxGeometry x="-283" y="182" width="44" height="31" as="geometry" />
        </mxCell>
        <mxCell id="dj5kbvaBb0ilANof_mrp-15" value="1" style="endArrow=open;html=1;endSize=12;startArrow=diamondThin;startSize=14;startFill=0;align=left;verticalAlign=bottom;rounded=0;fontSize=12;entryX=0.556;entryY=0.018;entryDx=0;entryDy=0;entryPerimeter=0;" edge="1" parent="1" source="hb9DhzdC0Ohu6EWz64yd-30" target="hb9DhzdC0Ohu6EWz64yd-47">
          <mxGeometry x="-1" y="3" relative="1" as="geometry">
            <mxPoint x="175" y="400" as="sourcePoint" />
            <mxPoint x="335" y="400" as="targetPoint" />
          </mxGeometry>
        </mxCell>
        <mxCell id="dj5kbvaBb0ilANof_mrp-17" value="to" style="text;html=1;align=center;verticalAlign=middle;resizable=0;points=[];autosize=1;strokeColor=none;fillColor=none;fontSize=16;" vertex="1" parent="1">
          <mxGeometry x="267" y="305" width="31" height="31" as="geometry" />
        </mxCell>
        <mxCell id="dj5kbvaBb0ilANof_mrp-18" value="&lt;b&gt;1..*&lt;/b&gt;" style="text;html=1;align=center;verticalAlign=middle;resizable=0;points=[];autosize=1;strokeColor=none;fillColor=none;fontSize=16;" vertex="1" parent="1">
          <mxGeometry x="260" y="415" width="42" height="31" as="geometry" />
        </mxCell>
        <mxCell id="dj5kbvaBb0ilANof_mrp-19" value="&lt;b&gt;1..*&lt;/b&gt;" style="text;html=1;align=center;verticalAlign=middle;resizable=0;points=[];autosize=1;strokeColor=none;fillColor=none;fontSize=16;" vertex="1" parent="1">
          <mxGeometry x="-279" y="242" width="42" height="31" as="geometry" />
        </mxCell>
        <mxCell id="dj5kbvaBb0ilANof_mrp-20" value="1" style="endArrow=open;html=1;endSize=12;startArrow=diamondThin;startSize=14;startFill=1;align=left;verticalAlign=bottom;rounded=0;fontSize=12;exitX=0.14;exitY=1.031;exitDx=0;exitDy=0;exitPerimeter=0;entryX=0.5;entryY=0;entryDx=0;entryDy=0;" edge="1" parent="1" source="hb9DhzdC0Ohu6EWz64yd-26" target="hb9DhzdC0Ohu6EWz64yd-61">
          <mxGeometry x="-1" y="3" relative="1" as="geometry">
            <mxPoint x="-142" y="400" as="sourcePoint" />
            <mxPoint x="18" y="400" as="targetPoint" />
          </mxGeometry>
        </mxCell>
        <mxCell id="dj5kbvaBb0ilANof_mrp-21" value="has" style="edgeLabel;html=1;align=center;verticalAlign=middle;resizable=0;points=[];fontSize=16;" vertex="1" connectable="0" parent="dj5kbvaBb0ilANof_mrp-20">
          <mxGeometry x="0.1041" y="-7" relative="1" as="geometry">
            <mxPoint x="22" y="1" as="offset" />
          </mxGeometry>
        </mxCell>
        <mxCell id="dj5kbvaBb0ilANof_mrp-22" value="&lt;b&gt;..*&lt;/b&gt;" style="text;html=1;align=center;verticalAlign=middle;resizable=0;points=[];autosize=1;strokeColor=none;fillColor=none;fontSize=16;" vertex="1" parent="1">
          <mxGeometry x="-141" y="463" width="33" height="31" as="geometry" />
        </mxCell>
        <mxCell id="dj5kbvaBb0ilANof_mrp-23" value="1" style="endArrow=open;html=1;endSize=12;startArrow=diamondThin;startSize=14;startFill=0;edgeStyle=orthogonalEdgeStyle;align=left;verticalAlign=bottom;rounded=0;fontSize=12;exitX=0;exitY=0.5;exitDx=0;exitDy=0;" edge="1" parent="1" source="hb9DhzdC0Ohu6EWz64yd-24" target="hb9DhzdC0Ohu6EWz64yd-65">
          <mxGeometry x="-1" y="3" relative="1" as="geometry">
            <mxPoint x="-720" y="357" as="sourcePoint" />
            <mxPoint x="-500" y="414" as="targetPoint" />
          </mxGeometry>
        </mxCell>
        <mxCell id="dj5kbvaBb0ilANof_mrp-24" value="&lt;font style=&quot;font-size: 20px;&quot;&gt;pay&lt;/font&gt;" style="text;html=1;align=center;verticalAlign=middle;resizable=0;points=[];autosize=1;strokeColor=none;fillColor=none;fontSize=16;" vertex="1" parent="1">
          <mxGeometry x="-418" y="9" width="50" height="36" as="geometry" />
        </mxCell>
        <mxCell id="dj5kbvaBb0ilANof_mrp-25" value="&lt;b&gt;*&lt;/b&gt;" style="text;html=1;align=center;verticalAlign=middle;resizable=0;points=[];autosize=1;strokeColor=none;fillColor=none;fontSize=16;" vertex="1" parent="1">
          <mxGeometry x="-449" y="685" width="24" height="31" as="geometry" />
        </mxCell>
        <mxCell id="dj5kbvaBb0ilANof_mrp-26" value="Admin" style="swimlane;fontStyle=1;align=center;verticalAlign=top;childLayout=stackLayout;horizontal=1;startSize=26;horizontalStack=0;resizeParent=1;resizeParentMax=0;resizeLast=0;collapsible=1;marginBottom=0;whiteSpace=wrap;html=1;fontSize=16;" vertex="1" parent="1">
          <mxGeometry x="-171" y="-387" width="240" height="197" as="geometry" />
        </mxCell>
        <mxCell id="dj5kbvaBb0ilANof_mrp-27" value="-&amp;nbsp; Admin_id : int&lt;br&gt;- Name : String&lt;br&gt;- Address : String&lt;br&gt;- Date : Date" style="text;strokeColor=none;fillColor=none;align=left;verticalAlign=top;spacingLeft=4;spacingRight=4;overflow=hidden;rotatable=0;points=[[0,0.5],[1,0.5]];portConstraint=eastwest;whiteSpace=wrap;html=1;fontSize=16;" vertex="1" parent="dj5kbvaBb0ilANof_mrp-26">
          <mxGeometry y="26" width="240" height="89" as="geometry" />
        </mxCell>
        <mxCell id="dj5kbvaBb0ilANof_mrp-28" value="" style="line;strokeWidth=1;fillColor=none;align=left;verticalAlign=middle;spacingTop=-1;spacingLeft=3;spacingRight=3;rotatable=0;labelPosition=right;points=[];portConstraint=eastwest;strokeColor=inherit;fontSize=16;" vertex="1" parent="dj5kbvaBb0ilANof_mrp-26">
          <mxGeometry y="115" width="240" height="8" as="geometry" />
        </mxCell>
        <mxCell id="dj5kbvaBb0ilANof_mrp-29" value="+ Admin() : Void&lt;br&gt;+ dashboard(dash str) : String" style="text;strokeColor=none;fillColor=none;align=left;verticalAlign=top;spacingLeft=4;spacingRight=4;overflow=hidden;rotatable=0;points=[[0,0.5],[1,0.5]];portConstraint=eastwest;whiteSpace=wrap;html=1;fontSize=16;" vertex="1" parent="dj5kbvaBb0ilANof_mrp-26">
          <mxGeometry y="123" width="240" height="74" as="geometry" />
        </mxCell>
        <mxCell id="dj5kbvaBb0ilANof_mrp-30" value="1" style="endArrow=open;html=1;endSize=12;startArrow=diamondThin;startSize=14;startFill=0;align=left;verticalAlign=bottom;rounded=0;fontSize=12;exitX=0.444;exitY=1;exitDx=0;exitDy=0;exitPerimeter=0;entryX=0.5;entryY=0;entryDx=0;entryDy=0;" edge="1" parent="1" source="dj5kbvaBb0ilANof_mrp-29" target="hb9DhzdC0Ohu6EWz64yd-23">
          <mxGeometry x="-1" y="3" relative="1" as="geometry">
            <mxPoint x="-150" y="-89" as="sourcePoint" />
            <mxPoint x="10" y="-89" as="targetPoint" />
          </mxGeometry>
        </mxCell>
        <mxCell id="dj5kbvaBb0ilANof_mrp-31" value="check" style="text;html=1;align=center;verticalAlign=middle;resizable=0;points=[];autosize=1;strokeColor=none;fillColor=none;fontSize=16;" vertex="1" parent="1">
          <mxGeometry x="-69" y="-142" width="60" height="31" as="geometry" />
        </mxCell>
        <mxCell id="dj5kbvaBb0ilANof_mrp-32" value="1..*" style="text;html=1;align=center;verticalAlign=middle;resizable=0;points=[];autosize=1;strokeColor=none;fillColor=none;fontSize=16;" vertex="1" parent="1">
          <mxGeometry x="-65" y="-53" width="42" height="31" as="geometry" />
        </mxCell>
        <mxCell id="dj5kbvaBb0ilANof_mrp-33" value="Dashboard" style="swimlane;fontStyle=1;align=center;verticalAlign=top;childLayout=stackLayout;horizontal=1;startSize=26;horizontalStack=0;resizeParent=1;resizeParentMax=0;resizeLast=0;collapsible=1;marginBottom=0;whiteSpace=wrap;html=1;fontSize=16;" vertex="1" parent="1">
          <mxGeometry x="204" y="-226" width="255" height="165" as="geometry" />
        </mxCell>
        <mxCell id="dj5kbvaBb0ilANof_mrp-34" value="- totalProducts : String&lt;br&gt;- totalOrder : String&lt;br&gt;- totalUser : String&lt;br&gt;- paymentStatus : String" style="text;strokeColor=none;fillColor=none;align=left;verticalAlign=top;spacingLeft=4;spacingRight=4;overflow=hidden;rotatable=0;points=[[0,0.5],[1,0.5]];portConstraint=eastwest;whiteSpace=wrap;html=1;fontSize=16;" vertex="1" parent="dj5kbvaBb0ilANof_mrp-33">
          <mxGeometry y="26" width="255" height="105" as="geometry" />
        </mxCell>
        <mxCell id="dj5kbvaBb0ilANof_mrp-35" value="" style="line;strokeWidth=1;fillColor=none;align=left;verticalAlign=middle;spacingTop=-1;spacingLeft=3;spacingRight=3;rotatable=0;labelPosition=right;points=[];portConstraint=eastwest;strokeColor=inherit;fontSize=16;" vertex="1" parent="dj5kbvaBb0ilANof_mrp-33">
          <mxGeometry y="131" width="255" height="8" as="geometry" />
        </mxCell>
        <mxCell id="dj5kbvaBb0ilANof_mrp-36" value="+ dashboard (dash str) : string" style="text;strokeColor=none;fillColor=none;align=left;verticalAlign=top;spacingLeft=4;spacingRight=4;overflow=hidden;rotatable=0;points=[[0,0.5],[1,0.5]];portConstraint=eastwest;whiteSpace=wrap;html=1;fontSize=16;" vertex="1" parent="dj5kbvaBb0ilANof_mrp-33">
          <mxGeometry y="139" width="255" height="26" as="geometry" />
        </mxCell>
        <mxCell id="dj5kbvaBb0ilANof_mrp-37" value="1" style="endArrow=open;html=1;endSize=12;startArrow=diamondThin;startSize=14;startFill=1;align=left;verticalAlign=bottom;rounded=0;fontSize=12;exitX=1;exitY=0.5;exitDx=0;exitDy=0;elbow=vertical;entryX=0.455;entryY=0.011;entryDx=0;entryDy=0;entryPerimeter=0;" edge="1" parent="1" source="dj5kbvaBb0ilANof_mrp-27" target="dj5kbvaBb0ilANof_mrp-33">
          <mxGeometry x="-1" y="3" relative="1" as="geometry">
            <mxPoint x="126" y="-308" as="sourcePoint" />
            <mxPoint x="286" y="-308" as="targetPoint" />
          </mxGeometry>
        </mxCell>
        <mxCell id="dj5kbvaBb0ilANof_mrp-38" value="has" style="text;html=1;align=center;verticalAlign=middle;resizable=0;points=[];autosize=1;strokeColor=none;fillColor=none;fontSize=16;" vertex="1" parent="1">
          <mxGeometry x="156" y="-316" width="44" height="31" as="geometry" />
        </mxCell>
        <mxCell id="dj5kbvaBb0ilANof_mrp-39" value="&lt;b&gt;1&lt;/b&gt;" style="text;html=1;align=center;verticalAlign=middle;resizable=0;points=[];autosize=1;strokeColor=none;fillColor=none;fontSize=16;" vertex="1" parent="1">
          <mxGeometry x="301" y="-262" width="27" height="31" as="geometry" />
        </mxCell>
      </root>
    </mxGraphModel>
  </diagram>
</mxfile>
